<svg xmlns="http://www.w3.org/2000/svg" width="200" height="200" viewBox="0 0 200 200">
  <rect width="200" height="200" rx="24" fill="#FAFAF5"/>
  <!-- Outer flame -->
  <path d="M100 30 C100 30 60 85 60 120 C60 142 78 160 100 160 C122 160 140 142 140 120 C140 85 100 30 100 30Z" fill="#B8781A"/>
  <!-- Middle flame -->
  <path d="M100 55 C100 55 72 95 72 118 C72 133 85 145 100 145 C115 145 128 133 128 118 C128 95 100 55 100 55Z" fill="#D4930F"/>
  <!-- Inner flame -->
  <path d="M100 80 C100 80 82 105 82 118 C82 128 90 136 100 136 C110 136 118 128 118 118 C118 105 100 80 100 80Z" fill="#E8B835"/>
</svg>